<svg height="28" viewBox="0 0 105 28" width="105" xmlns="http://www.w3.org/2000/svg"><path d="m2.4230084 28v-11.5294118h-2.4230084l2.4230084-6.58823526h-2.4230084l4.03834733-9.88235294h4.03834733l-2.4230084 6.58823529h1.61533894l-2.4230084 6.58823531h2.4230084v14.8235294zm6.46135573 0v-.8235294l.80766947-.8235294v-8.2352941h10.5650293v6.7147923l.7423432.6969724v2.4705882l-3.2306778-1.6470588v-5.7647059h-5.6536863v7.4117647zm26.65309237 0v-3.2941176l14.5380504-3.2941177.0504794-.8235294h-14.5885298v-3.2941177h14.5380504v-.8235294h4.8460168v.8235294h14.5380504v3.2941177h-14.5380504v.8235294l14.5380504 3.2941177v3.2941176l-16.9610588-4.1176471zm46.8448291 0h-2.4230084l-4.8460168-1.6470588v-14.8235294h-2.4230084v-3.29411768h6.431662l.0296937 15.64705878 3.2306779.8235295zm1.6153389 0v-17.2941176l16.1533895-.0775087v-5.68719723h-16.1533895v-3.29411765h21.0023755v9.05882358l-1.618308 3.2941176h-14.5380507v10.7058824h16.1533897l-.80767 3.2941176zm-61.3828794 0v-4.1176471l3.2306778-4.117647-3.2306778-12.36505192h3.2306778l2.0191737 8.24740482c.3513758-1.6438293.620599-3.2908881.8076695-4.9411764.1870705-1.6502884.2919883-3.30380628.3147535-4.96055368h-6.3722745v-2.45121107l1.6153389-2.47058824h4.8460168l-1.6153389 2.47058824h4.8460168c-.1878225 4.75386212-.4570457 8.32248955-.8076695 10.70588235s-.8890702 4.4422163-1.6153389 6.1764706l2.4230084 2.8823529v4.9411765l-4.6916094-5.0368512zm-12.9227115-12.3529412v-2.4705882h11.3073725v2.4705882zm25.8454229-.8235294v-3.2941176h14.5380504v-1.64705886h-12.9227114v-2.47058823h12.9227114v-1.64100346l-13.7303809-.00605537v-3.29411764l3.2306779-.01877163v-2.45181661h3.2306778l1.6153389 2.45181661h16.1533894l1.6153389-2.45181661h3.2306779v2.45181661h3.2306778v3.31288927h-13.7303809v1.64705883h12.9227115v2.47058823h-12.9227115v1.64705886h14.5380504v3.2941176zm-25.8454229-3.2941176v-9.88235298h2.4230084v7.93858132h1.6153389v-9.58564014h3.2306779v9.58564014h1.6153389v-7.93858132h2.4230084v9.88235298zm65.4212268-5.76470592-2.4230084-4.94117647h4.8460168l2.4230084 4.94117647z" fill="#218bfc"/></svg>