<svg height="68" viewBox="0 0 68 68" width="68" xmlns="http://www.w3.org/2000/svg"><path d="m65.8196938 19.8c.4.4.4 1-.1 1.5-.4.4-1 .4-1.4 0l-1.1-1.1-1.8 1.8 2.8 2.8c.4.4.4 1 0 1.4s-1 .4-1.4 0l-2.8-2.8-1.8 1.8 1 1c.4.4.4 1 0 1.4s-1 .4-1.4 0l-1-1-1.8 1.8 2.8 2.8c.4.4.4 1 0 1.4s-1 .4-1.4 0l-2.8-2.8-1.8 1.8 1 1c.4.4.4 1 0 1.4s-1 .4-1.4 0l-1-1-1.8 1.8 2.8 2.9c.4.4.4 1 0 1.4s-1 .4-1.4 0l-2.8-2.8-8.6 8.6 2.8 2.8c.4.4.4 1 0 1.4l-17 17c-1.1 1.2-3 1.2-4.2 0l-4.2-4.2c-1.2-1.1-1.2-3 0-4.2l17-17c.4-.4 1-.4 1.4 0l2.8 2.8 8.7-8.8-2.8-2.8c-.4-.4-.4-1 0-1.4s1-.4 1.4 0l2.8 2.8 1.8-1.8-1-1c-.4-.4-.4-1 0-1.4s1-.4 1.4 0l1 1 1.8-1.8-2.8-2.8c-.4-.4-.4-1 0-1.4s1-.4 1.4 0l2.8 2.8 1.8-1.8-1-1c-.4-.4-.4-1 0-1.4s1-.4 1.4 0l1 1 1.8-1.8-2.8-2.8c-.4-.4-.4-1 0-1.4s1-.4 1.4 0l2.8 2.8 1.8-1.8-1.1-1.1c-.4-.4-.4-1 0-1.4s1-.4 1.4 0l1.8 1.8zm-41.2-9.9c-.5.2-1.1 0-1.4-.5s0-1.1.5-1.3l2.7-1.1c-.4-1.3-.6-2.6-.6-4 0-.6.4-1 1-1s1 .4 1 1c0 6 4.8 10.8 10.8 10.8s10.8-4.8 10.8-10.8c0-.6.4-1 1-1s1 .4 1 1c0 1.4-.2 2.8-.6 4l2.7 1.1c.5.2.7.8.5 1.3s-.8.7-1.3.5l-2.7-1.1c-.4.9-1 1.7-1.6 2.5l3.4 3.4c.4.4.4 1 0 1.4-1 1-1.9-.6-4.8-3.4-.8.7-1.6 1.2-2.5 1.7l1.1 2.7c.6 1.3-1.3 2-1.8.8l-1.1-2.7c-1 .3-2 .5-3 .6 0-.2 0 4 0 4.2 0 .6-.4 1-1 1s-1-.4-1-1c0 .3 0-4 0-4.2-1.1-.1-2.1-.3-3-.6l-1.1 2.7c-.2.5-.8.7-1.3.5s-.7-.8-.5-1.3l1.1-2.7c-.9-.5-1.7-1-2.5-1.7l-3.4 3.4c-.4.4-1 .4-1.4 0s-.4-1 0-1.4l3.4-3.4c-.7-.8-1.2-1.6-1.7-2.5zm-9.1 25.6c-1-.1-2-.3-3-.6l-1.1 2.7c-.2.5-.8.7-1.3.5-.49999995-.2-.69999995-.8-.49999995-1.3l1.09999995-2.6c-.89999995-.5-1.69999995-1-2.49999995-1.7l-3.3 3.3c-.4.4-1 .4-1.4 0s-.4-1 0-1.4l3.4-3.4c-.7-.8-1.2-1.6-1.7-2.5l-2.8 1.1c-.5.3-1.1 0-1.3-.5-.3-.5 0-1.1.5-1.3l2.7-1.1c-.4-1.3-.6-2.6-.6-4 0-.6.4-1 1-1s1 .4 1 1c0 6 4.79999995 10.8 10.79999995 10.8s10.8-4.8 10.8-10.8c0-.6.4-1 1-1s1 .4 1 1c0 1.4-.2 2.8-.6 4l2.7 1.1c.5.2.7.8.5 1.3-.6 1.5-2.6-.2-4-.6-.5.9-1 1.7-1.7 2.5l3.4 3.4c.4.4.4 1 0 1.4s-1 .4-1.4 0l-3.4-3.4c-.8.7-1.6 1.2-2.5 1.7l1.1 2.7c.6 1.3-1.3 2-1.8.8l-1.1-2.7c-1 .3-2 .5-3 .6 0-.3 0 3.9 0 4.2 0 .6-.4 1-1 1s-1-.4-1-1c0 .3 0-4 0-4.2z" fill="#fff"/></svg>