<svg height="68" viewBox="0 0 68 68" width="68" xmlns="http://www.w3.org/2000/svg"><path d="m45.9270457 19.5546398c1.2 2.9 2.3 4.3 3.5 6.3 7.7 13.6-.6 31-1 31.7-.9 2.3-2.2 6.6-1.9 8.2.1.6-.3 1.1-.8 1.2-.1 0-.1 0-.2 0-.5 0-.9-.3-1-.8-.5-2.7 1.8-8.7 2.1-9.4.1-.2 5.3-11 3.8-21.8-4.4 1-11.3 3.5-15.7 8.6v9.3c0 .6-.4 1-1 1s-1-.4-1-1v-9.3c-4.4-5.1-11.3-7.5-15.7-8.6-1.6 10.8 3.6 21.6 3.7 21.7.3.8 2.6 6.8 2.1 9.5-.1.5-.5.8-1 .8-.1 0-.1 0-.2 0-.6-.1-.9-.7-.8-1.2.3-1.6-1.1-6-2-8.3-.3-.6-8.7-18-.8-31.6 1.1-2 2.3-3.4 3.5-6.3 4.2-10.10000002-2-15.60000002-2.3-15.80000002-.4-.3-.5-1-.1-1.4s1-.5 1.4-.1c0 0 7.6 6.5 2.8 18.10000002-.8 2-1.7 3.5-2.8 5.2 3.9.5 8.5.7 13.2.7 4.8 0 9.3-.3 13.2-.7-1.1-1.7-2-3.2-2.8-5.2-4.8-11.50000002 2.7-18.00000002 2.8-18.10000002.4-.4 1-.3 1.4.1s.3 1-.1 1.4c-.3.2-6.5 5.6-2.3 15.80000002zm-12.3 22.1c4.8-5.2 11.9-7.6 16.3-8.7-.4-1.9-1.1-3.8-2-5.6-8.5 1-20.1 1-28.6 0-.9 1.8-1.6 3.7-2 5.6 4.4 1.1 11.5 3.5 16.3 8.7zm29.4-6.2c.4 3.3.2 6.9-.3 10.7-.8 4.5-2.4 8.9-3.6 11.4-.2.4-.5.6-.9.6-.1 0-.3 0-.4-.1-.5-.2-.7-.8-.5-1.3 1.2-2.4 2.6-6.6 3.4-10.8.6-3.6.8-7.1.4-10.2-.7-6.6-3.1-8.9-5.2-12.9-.1-.1-.1-.3-.2-.4l-1.1 2.8c-.1.4-.5.6-.9.6-.2 0-.3-.1-.4-.1-1.6-.6.2-2.5 1.4-6.2.1 0 .1-.1.1-.1 0-.1 0-.1 0-.1.1-.1.1-.1.2-.2 0-.1.1-.1.1-.1s.1-.1.2-.1h.1.2.2.1l4.9 2c.6.2.8.8.6 1.3-.2.6-.8.8-1.3.6l-2.5-1c.4.8.8 1.6 1.3 2.3 2.2 3.7 3.5 6.5 4.1 11.3zm-48.3-11c.2.5-.1 1.1-.7 1.1-.1.1-.3.1-.4.1-.4 0-.7-.2-.9-.6l-1.1-2.8c-.1.2-.1.3-.2.4-2.10000001 4-7.30000001 9.5-4.80000001 23.1.8 4.1 2.2 8.4 3.40000001 10.8.6 1.2-1.20000001 2.1-1.80000001.9-.5-1.1-1-2.3-1.3-3.2-7.2-19.6.9-28.8 2.9-32.4l-2.5 1c-.5.2-1.1-.1-1.3-.6s.1-1.1.6-1.3l4.90000001-2h.1.2.2.1s.1 0 .2.1c0 .1.1.1.1.1.1 0 .1.1.2.2v.1c.1 0 .1.1.1.1z" fill="#fff"/></svg>