<svg height="68" viewBox="0 0 68 68" width="68" xmlns="http://www.w3.org/2000/svg"><path d="m31.1 15.2320274c-1.5 12.5 11.4 19.1 8.3 28.1-.1.4-.5.7-.9.7-.1 0-.2-.1-.3-.1-.5-.2-.8-.8-.6-1.3 2.6-7.7-10.1-14.5-8.4-27.6 1-8.09999999 6.3-13.49999999 19.1-12.99999999 7.7.4 13.3 7.4 12 14.99999999-.9 5.5 0 6.9.5 7.3.6.5 1.8.1 2.7-.3.5-.2 1.1 0 1.3.5s0 1.1-.5 1.3c-5.8 2.7-7.2-2.2-6-9.1 1.1-6.6-3.9-14.09999999-14.7-12.49999999-.1 0-.1 0-.2 0-.4 0-10.9-.1-12.3 10.99999999zm26.8 11.6c1.5 1.7 3.7 2.6 6.6 2.7.6 0 1 .4 1 1s-.5 1-1 1c-8.1-.1-11.8-6.4-10.9-14.1.1-4.5-2.8-6.9-6.4-6.9-.6 0-1-.4-1-.99999999 0-.5.4-1 1-1 4.5-.1 8.5 3.09999999 8.4 8.99999999v.1s-.7 5.8 2.3 9.2zm-2.5 10.2c.4.4.5 1 .1 1.4 0 0-2.5 3.2-2 5.8.2 1.1.8 1.9 1.8 2.5.4.3.6.9.3 1.4-.2.3-.6.5-.9.5-.2 0-.3-.1-.5-.2-1.5-.9-2.4-2.2-2.7-3.8-.6-3.5 2.4-7.2 2.5-7.4.3-.5 1-.5 1.4-.2zm9.8 8c.6.1.9.6.8 1.2-.1.5-.5.8-1 .8 0 0-.1 0-.2 0-5-1.3-7.3-6.7-7.4-6.9-.3-.5 0-1.1.5-1.3.5-.3 1.1 0 1.3.5 0 .1 2 4.7 6 5.7zm-.1-7.4c-.3 0-.7 0-1.1.1-5.1 0-9-4.4-11.5-8.2-1.2-1.9-3.3-3.2-5.8-3.6-8.8-1.6-12.1-10.8-12.2-11.2-.2-.6.1-1.1.6-1.3.6-.2 1.1.1 1.3.6 0 .1 3 8.6 10.7 9.9 3 .5 5.6 2.2 7.1 4.5 2.3 3.6 6.1 7.7 10.7 7.2.6 0 1 .4 1.1.9 0 .5-.4 1-.9 1.1zm-26.4-26.5c.1-.5.6-.9 1.2-.7 9.1 2 12.3 11.1 9.7 11.4-.5 0-1-.4-1.1-.9-.8-6.7-8.9-8.6-9-8.6-.6-.1-.9-.7-.8-1.2zm-11 18.5 5.5 5.4c.4.4.4 1 0 1.4l-3.7 3.7-7.2 10.4c.1 1.7-.2 3.5-1 5.1l4.6 4.6c1.4 1.4 1.4 3.7 0 5.1s-3.7 1.4-5.1 0l-4.6-4.6c-4 1.9-8.8 1.2-12.1-2.1-2-2-3.1-4.7-3.1-7.6s1.1-5.6 3.1-7.6 4.7-3.1 7.6-3.1h.6l10.3-7 3.7-3.7c.2-.2.4-.3.7-.3s.5.1.7.3zm-21.2 28.4c3.2 2.4 7.6 2.3 10.6-.2l-1.5-1.5c-.4-.4-.4-1 0-1.4s1-.4 1.4 0l1.5 1.5c2.5-3.1 2.5-7.6 0-10.8l-1.5 1.5c-.4.4-1 .4-1.4 0s-.4-1 0-1.4l1.5-1.5c-1.5-1.2-3.4-1.9-5.4-1.9s-3.9.7-5.4 1.9l1.5 1.6c.4.4.4 1 0 1.4s-1 .4-1.4 0l-1.5-1.5c-1.2 1.5-1.9 3.4-1.9 5.4 0 2.1.7 4 2 5.6l2-2c.4-.4 1-.4 1.4 0s.4 1 0 1.4zm18.1 3.6-4.3-4.3c-.7.9-1.3 1.6-2.3 2.3l4.3 4.3c.6.6 1.7.6 2.3 0s.6-1.7 0-2.3zm-2.7-13.9 5.6-8-4.3-4.3-8.1 5.5c1.6.5 3 1.4 4.2 2.6s2.1 2.7 2.6 4.2zm6.8-9.6 2.4-2.4-4-4-2.4 2.4zm-19.5 10.4c1.3-1.4 3.7-1.4 5.1 0s1.4 3.7 0 5.1-3.7 1.4-5.1 0-1.4-3.7 0-5.1zm3.7 3.7c.6-.7.6-1.7 0-2.3s-1.7-.6-2.3 0-.6 1.7 0 2.3 1.7.6 2.3 0z" fill="#fff"/></svg>