<svg height="68" viewBox="0 0 68 68" width="68" xmlns="http://www.w3.org/2000/svg"><path d="m64 2.03719651c1.1 0 2 .9 2 2v5.9c0 2.69999999-3.4 1.89999999-3.9 1.99999999-2.6 0-1.9-3.39999999-2-3.79999999h-4.2v6.29999999c0 1.7-2.4.7-8.6 1v15.7 5.8c0 1.9-1.7.6-34.1 1-.6 0-1-.5-1-1v-28.79999999h-4.2c-.1.5.6 3.79999999-2 3.79999999h-2c-1.1 0-2-.9-2-1.99999999v-5.9c0-1.1.9-2 2-2h1.9c2.7 0 1.9 3.5 2 4.1h4.4c.6-2.3 2.7-4.1 5.3-4.1h33c2.4 0 4.6 1.7 5.1 4.2h4.4v-2.2c0-2.7 3.4-1.9 3.9-2zm-60 7.9h2c0 .19999999 0-5.8 0-5.9h-2zm49.7-3.8c-1.1-2.8-5.1-2.8-6.2 0zm-36.1-2.1c-1.9 0-3.5 1.6-3.5 3.5v22.69999999h31.2c.4-21.09999999-1-23.49999999 1.2-26.19999999zm-3.5 31.99999999h31.2v-3.8h-31.2zm39.8-22.5v-5.39999999h-6.6v5.39999999zm8.2-3.59999999h2v-5.9h-2zm-16.8 40.69999999c.5 0 .9.4 1 1v13.3c0 .6-.5 1-1 1h-33.4c-5.4 0-9.8-4.4-9.8-9.8v-5.2c0-5.4 4.4-9.8 9.8-9.8h20c4.4 0 7.9 3.6 7.9 7.9v1.6zm-1 13.4v-11.4h-4.5v1.4c0 3.3-2.6 5.9-5.9 5.9h-20.8c-3.4 0-6.1-2.8-6.1-6.1s2.7-6.1 6.1-6.1h14.9c2 0 3.7 1.6 3.7 3.7 0 2-1.6 3.7-3.7 3.7h-12.8c-.6 0-1-.5-1-1 0-1.8 2.3-.6 13.8-1 1 0 1.8-.8 1.8-1.8s-.8-1.8-1.8-1.8h-14.9c-2.3 0-4.2 1.9-4.2 4.2s1.9 4.2 4.2 4.2h20.8c2.1 0 3.9-1.7 3.9-3.9v-5c0-3.3-2.6-5.9-5.9-5.9h-20c-4.4 0-7.9 3.6-7.9 7.9v5.2c0 4.3 3.5 7.8 7.8 7.8z" fill="#fff"/></svg>